#!OML:ASF E:/inclinewalkrobotboard/Project1/Captureday1/Session1/subject1.ASF
:FULLY-SPECIFIED
:DEGREES
276
root 0 0 0 1.8432884723518113 -3.885027004439743 2.183858014552096
lowerback 11.98353210822656 1.1613614392195895 -0.10599107731335144
upperback -4.458436437333783 1.4584771001742012 -0.8556418272866236
thorax -11.566156086376811 0.6755111750566618 -1.1291725489088578
lowerneck -6.235557231366662 1.7544832788917841 4.834293046864634
upperneck 18.174123781698405 3.288756840971356 -8.490345543275682
head 6.696211038102895 1.2239225703734524 -3.293646288560219
rclavicle -2.144260822362709E-15 -1.1000487239998169E-15
rhumerus 23.25332294137941 17.834780478051854 -48.496922080622255
rradius 74.89530900315151
rwrist 25.818471883741974
rhand -34.81835003351067 -58.10209246089204
rfingers 7.12502
rthumb -7.961096935023271 -88.01246206149574
lclavicle -1.1112071734067389E-15 -8.381043143256406E-16
lhumerus 22.4382180272395 -14.551472218690456 45.768085470312386
lradius 71.34400601929904
lwrist -21.382496940223554
lhand -45.27244361993728 -69.01928734538288
lfingers 7.125020000000012
lthumb -18.0465834123805 -39.77119284153481
rfemur -24.575343205301024 -0.8029983317201657 18.57029880458462
rtibia 45.01072478391561
rfoot -32.95970127090707 -17.87304288469567
rtoes -23.01932440417203
lfemur -26.47947177676142 1.818529023225957 -15.471333681519456
ltibia 44.874349843733725
lfoot -32.31817336436073 3.359025860637389
ltoes -21.5051778538336
277
root 0 0 0 1.843288181940892 -3.8850226429353953 2.1838679160810974
lowerback 11.983532128342322 1.161358697439733 -0.10600091873900097
upperback -4.458436658331867 1.4584720459896556 -0.85564307486666
thorax -11.566156208857272 0.6755090299495411 -1.1291674633315076
lowerneck -6.235556366358035 1.7544839868082363 4.83429254676145
upperneck 18.174124439875314 3.2887580979961673 -8.490345879364028
head 6.696211101848973 1.223923100342125 -3.2936463014533572
rclavicle -2.1442527483230706E-15 -1.100052086597776E-15
rhumerus 23.253318077169304 17.834775453179518 -48.49692082175419
rradius 74.89530511215554
rwrist 25.81847363613931
rhand -34.818349313778114 -58.10209005304178
rfingers 7.12502
rthumb -7.961096222440563 -88.01245930725509
lclavicle -1.1112003922002296E-15 -8.381076478622743E-16
lhumerus 22.438215388225032 -14.551467001518116 45.76808391939582
lradius 71.34400248096014
lwrist -21.382499651586407
lhand -45.27244340535175 -69.01929090928701
lfingers 7.125020000000012
lthumb -18.046583217978053 -39.771196337496534
rfemur -24.57540970067624 -0.8030337346513696 18.570245055013107
rtibia 45.01091903643952
rfoot -32.95958599302391 -17.873033449556743
rtoes -23.019298971447945
lfemur -26.479354127720228 1.818509283844405 -15.47141760974243
ltibia 44.87414021437568
lfoot -32.31828850536898 3.359085605228235
ltoes -21.505146744076676
278
root 0 0 0 1.8432872915581306 -3.8850150784624065 2.1838783315345185
lowerback 11.983531271191817 1.1613546996165258 -0.10601244462724202
upperback -4.458437185026451 1.4584651390277708 -0.8556437736058925
thorax -11.56615613512789 0.6755060146076444 -1.1291606054074856
lowerneck -6.235554364740288 1.75448540825524 4.834292563847454
upperneck 18.174123569269963 3.2887603873532028 -8.490346909717584
head 6.696210445638603 1.2239241020156797 -3.29364649619425
rclavicle -2.1442440409896855E-15 -1.1000542285120104E-15
rhumerus 23.25331050358332 17.834766824484397 -48.49691748053948
rradius 74.89529899234338
rwrist 25.818477746858928
rhand -34.81834847786 -58.102087660718105
rfingers 7.12502
rthumb -7.961095381969834 -88.01245658125262
lclavicle -1.1111934425610945E-15 -8.381093532462341E-16
lhumerus 22.438215331867085 -14.55146687789175 45.76808394015124
lradius 71.34400214247809
lwrist -21.382499498944
lhand -45.27244330457958 -69.01929040472422
lfingers 7.125020000000012
lthumb -18.046583124202513 -39.77119586017744
rfemur -24.575485044802427 -0.803065712684349 18.570193677835658
rtibia 45.011089549445
rfoot -32.95948118568259 -17.873027349453615
rtoes -23.01927104202067
lfemur -26.479226503158017 1.818491851493346 -15.471500167274328
ltibia 44.87395599914935
lfoot -32.31839547153884 3.359132680632375
ltoes -21.505127868631618
279
root 0 0 0 1.8432859632861036 -3.8850052956684618 2.1838884287277893
lowerback 11.983529685607959 1.1613499201350106 -0.10602456657021819
upperback -4.4584379434380415 1.4584571526685581 -0.8556439574625779
thorax -11.566155881263516 0.6755024754865571 -1.1291527423986287
lowerneck -6.235551519635973 1.7544873154556735 4.834293012577446
upperneck 18.17412153345279 3.2887633645372585 -8.490348445495247
head 6.6962092459009614 1.2239254204318089 -3.293646830367365
rclavicle -2.1442352317653606E-15 -1.1000552166786562E-15
rhumerus 23.253300849452643 17.834755350032566 -48.49691241458121
rradius 74.89529114792927
rwrist 25.818483794002574
rhand -34.81834757878993 -58.10208538415445
rfingers 7.12502
rthumb -7.961094468991535 -88.01245401230439
lclavicle -1.1111866986907528E-15 -8.381096427083015E-16
lhumerus 22.438217231029036 -14.551470686019838 45.76808519198894
lradius 71.34400427400877
lwrist -21.382497134738557
lhand -45.27244327777899 -69.01928672116262
lfingers 7.125020000000012
lthumb -18.046583093495816 -39.771192270447415
rfemur -24.575561452769254 -0.8030926034946244 18.570147860859898
rtibia 45.011228843103176
rfoot -32.959391421014914 -17.873023911273062
rtoes -23.01924360255186
lfemur -26.479098047551286 1.8184772479625297 -15.47157568389958
ltibia 44.87380538553848
lfoot -32.31848632439436 3.3591648460462222
ltoes -21.505121267102197
280
root 0 0 0 1.843284316770219 -3.8849942706595337 2.183897556966657
lowerback 11.983527583552792 1.1613448076443773 -0.10603634148343022
upperback -4.458438855599155 1.4584488028130935 -0.8556436975072236
thorax -11.566155498905594 0.6754987364193761 -1.129144586024985
lowerneck -6.235548121764807 1.754489498067717 4.834293809296912
upperneck 18.174118715447133 3.288766714504791 -8.490350321956234
head 6.69620768431381 1.2239269125964372 -3.293647268485742
rclavicle -2.1442268789038812E-15 -1.1000552500197504E-15
rhumerus 23.25328973717336 17.834741777550263 -48.49690596611763
rradius 74.89528208636858
rwrist 25.818491371502038
rhand -34.81834667285896 -58.10208334690203
rfingers 7.12502
rthumb -7.961093542152733 -88.0124517473313
lclavicle -1.1111806025318453E-15 -8.381088564308704E-16
lhumerus 22.43822046036997 -14.551477185750572 45.7680872825683
lradius 71.34400811684174
lwrist -21.3824932759222
lhand -45.272443302844806 -69.01928089030542
lfingers 7.125020000000012
lthumb -18.046583106686434 -39.77118657579712
rfemur -24.57563299115044 -0.8031138206209523 18.570109352372974
rtibia 45.0113356052641
rfoot -32.95931809944801 -17.873022324081347
rtoes -23.019218206236513
lfemur -26.47897693426313 1.818466152364831 -15.471639769590215
ltibia 44.87369590725
lfoot -32.318554836116846 3.3591803952705943
ltoes -21.505125937497326
281
root 0 0 0 1.8432824483351347 -3.8849829242597727 2.183905260656411
lowerback 11.983525212958774 1.1613397625467328 -0.10604701263103278
upperback -4.458439842313815 1.458440713984745 -0.8556430911016436
thorax -11.56615505994261 0.6754950829274096 -1.129136753446432
lowerneck -6.235544454188456 1.7544917705544416 4.8342948688203595
upperneck 18.17411548033603 3.288770161883427 -8.490352393391614
head 6.696205934437676 1.2239284528453016 -3.293647778630177
rclavicle -2.1442195159629823E-15 -1.1000545971971083E-15
rhumerus 23.253277839904868 17.834726930625507 -48.49689852480532
rradius 74.89527236321322
rwrist 25.818500020759743
rhand -34.818345817209945 -58.102081676041614
rfingers 7.12502
rthumb -7.96109266090644 -88.01244992799496
lclavicle -1.1111755884547641E-15 -8.381073806133361E-16
lhumerus 22.438224464494134 -14.551485218080359 45.76808982739989
lradius 71.34401297402962
lwrist -21.382488604376192
lhand -45.27244337295983 -69.01927393003294
lfingers 7.125020000000012
lthumb -18.046583160014464 -39.77117977563424
rfemur -24.575695658639532 -0.8031295449787201 18.570078777288813
rtibia 45.01141259493495
rfoot -32.95926061956777 -17.873021856802257
rtoes -23.019195344628958
lfemur -26.478870031474067 1.8184591969502129 -15.471689537408244
ltibia 44.87363270548493
lfoot -32.31859741182161 3.359178837260351
ltoes -21.505139957830856
